# xmcd
# 
# Track frame offsets:
#     182
#     32880
#     67655
#     95655
#     168447
# 
# Disc length: 2532
# 
# Revision: 1
# Processed by: cddbd v1.5.2PL0 Copyright (c) Steve Scherf et al.
# Submitted via: fre:ac v1.0.17
# 
DISCID=3809e205
DTITLE=Tete Montoliú - Boleros Que O Mundo Consagrou
DYEAR=0
DGENRE=Bolero
TTITLE0=Frenesí - Contigo en la distancia - María Elena
TTITLE1=Tres palabras - Amor mío - Siempre en mi corazón
TTITLE2=Noche de ronda - Solamente una vez - Vereda tropical
TTITLE3=Perfidia - No me platiques más - Bésame mucho - Amor amor amor - La puerta - María la O
TTITLE4=Por el amor de una mujer
EXTD=
EXTT0=
EXTT1=
EXTT2=
EXTT3=
EXTT4=
PLAYORDER=
